<svg width="395.99999999999994" height="121.53071187030821" viewBox="0 0 279.8996194171946 85.9" class="css-1j8o68f"><defs id="SvgjsDefs1124"></defs><g id="SvgjsG1125" featurekey="7fT3kx-0" transform="matrix(0.6305731411584748,0,0,0.6305731411584748,3.6127389090429327,73.07414131057668)" fill="#ffffff"><path d="M4.36 7.279999999999999 l0 4.56 q0.62 -0.36 1.4 -0.5 q0.58 -0.1 1.44 -0.1 l2.56 0 q1.04 0 1.63 -0.52 t0.59 -1.54 q0 -1.9 -2.22 -1.9 l-5.4 0 z M4.36 14.059999999999999 l0 3.76 l5.62 0 q0.66 0 1.26 -0.24 q0.66 -0.24 1.04 -0.7 q0.44 -0.54 0.44 -1.24 q0 -1.2 -0.94 -1.74 q-0.74 -0.44 -2.02 -0.44 l-2.56 0 q-1.72 0 -2.84 0.6 z M14.88 15.92 q0 1.4 -0.78 2.38 q-0.68 0.86 -1.92 1.3 q-1.1 0.4 -2.42 0.4 l-7.56 0 l0 -14.92 l7.56 0 q1.28 0 2.27 0.48 t1.55 1.38 q0.58 0.94 0.58 2.22 q0 0.98 -0.35 1.75 t-0.99 1.19 q0.86 0.4 1.42 1.32 q0.64 1.06 0.64 2.5 z M43.212 12.440000000000001 q0 -1.6 -0.82 -2.9 q-0.78 -1.26 -2.13 -1.98 t-2.93 -0.72 q-1.64 0 -2.99 0.74 t-2.11 2.02 q-0.78 1.34 -0.78 2.98 q0 1.56 0.84 2.88 q0.8 1.24 2.15 1.97 t2.92 0.73 t2.92 -0.76 t2.13 -2.04 q0.8 -1.34 0.8 -2.92 z M45.372 12.559999999999999 q0 2.16 -1.12 3.98 q-1.08 1.74 -2.93 2.77 t-3.99 1.03 q-2.22 0 -4.08 -1.08 q-1.82 -1.04 -2.86 -2.86 q-1.08 -1.86 -1.08 -4.08 q0 -2.14 1.14 -3.94 q1.08 -1.72 2.93 -2.73 t3.97 -1.01 q2.18 0 4.04 1.06 q1.82 1.04 2.88 2.82 q1.1 1.86 1.1 4.04 z M73.504 12.440000000000001 q0 -1.6 -0.82 -2.9 q-0.78 -1.26 -2.13 -1.98 t-2.93 -0.72 q-1.64 0 -2.99 0.74 t-2.11 2.02 q-0.78 1.34 -0.78 2.98 q0 1.56 0.84 2.88 q0.8 1.24 2.15 1.97 t2.92 0.73 t2.92 -0.76 t2.13 -2.04 q0.8 -1.34 0.8 -2.92 z M75.664 12.559999999999999 q0 2.16 -1.12 3.98 q-1.08 1.74 -2.93 2.77 t-3.99 1.03 q-2.22 0 -4.08 -1.08 q-1.82 -1.04 -2.86 -2.86 q-1.08 -1.86 -1.08 -4.08 q0 -2.14 1.14 -3.94 q1.08 -1.72 2.93 -2.73 t3.97 -1.01 q2.18 0 4.04 1.06 q1.82 1.04 2.88 2.82 q1.1 1.86 1.1 4.04 z M97.096 14.02 l-4.02 5.98 l-2.18 0 l0 -14.92 l2.18 0 l0 11.14 l7.58 -11.14 l2.62 0 l-4.9 7.02 l2.68 4.02 q0.64 0.96 1.26 1.36 q0.5 0.32 1.06 0.32 l0.62 -0.02 l0 2.22 l-0.4 0 q-1 0.02 -1.46 -0.08 q-0.74 -0.12 -1.36 -0.6 q-0.7 -0.56 -1.42 -1.68 z M121.368 20 l-2.14 0 l0 -14.92 l2.14 0 l0 14.92 z M138.03999999999996 7.18 l-1.74 -2.1 l2.82 0 l9.58 11.4 l0 -11.4 l2.2 0 l0 14.92 l-2.16 0 l-8.56 -10.26 l0 10.26 l-2.14 0 l0 -12.82 z M179.91199999999998 7 l-1.4 1.64 q-0.82 -0.84 -1.96 -1.32 t-2.4 -0.48 q-1.64 0 -2.99 0.74 t-2.11 2.02 q-0.78 1.34 -0.78 2.98 q0 1.56 0.84 2.88 q0.8 1.24 2.15 1.97 t2.91 0.73 q1.1 0 2.11 -0.38 t1.81 -1.06 l0 -2.72 l-1.92 0 l-0.94 -2.16 l5.02 0 l0 5.8 q-1.14 1.28 -2.73 1.99 t-3.37 0.71 q-2.22 0 -4.08 -1.08 q-1.82 -1.04 -2.86 -2.86 q-1.08 -1.86 -1.08 -4.08 q0 -2.14 1.14 -3.94 q1.08 -1.72 2.93 -2.73 t3.97 -1.01 q1.66 0 3.16 0.64 q1.46 0.6 2.58 1.72 z M225.776 9.74 l-5.1 6.1 l-5.06 -6.1 l0 10.26 l-2.14 0 l0 -12.82 l-1.74 -2.1 l2.82 0 l6.1 7.32 l6.18 -7.32 l2.82 0 l-1.74 2.1 l0 12.82 l-2.14 0 l0 -10.26 z M249.24800000000002 6.66 l-0.82 -1.84 l2.4 0 l7.18 15.18 l-2.44 0 l-0.98 -2.18 l-4.54 0 q-1.28 0 -2.3 0.24 q-0.9 0.22 -1.5 0.58 q-0.54 0.32 -0.72 0.66 l-0.38 0.7 l-2.36 0 z M250.848 15.620000000000001 l2.76 0 l-3.26 -6.3 l-3.3 7.14 q0.44 -0.38 1.34 -0.6 q1.02 -0.24 2.46 -0.24 z M275.62 7.279999999999999 l0 10.54 l3.38 0 q1.4 0 2.52 -0.72 q1.06 -0.7 1.66 -1.88 t0.6 -2.58 q0 -1.46 -0.57 -2.68 t-1.63 -1.94 q-1.14 -0.74 -2.62 -0.74 l-3.34 0 z M272.3 7.279999999999999 l-0.96 -2.2 l7.6 0 q1.98 0 3.62 1.02 q1.58 0.98 2.5 2.68 t0.92 3.7 q0 1.5 -0.59 2.97 t-1.63 2.57 q-1 1.08 -2.14 1.54 q-1.1 0.44 -2.62 0.44 l-5.52 0 l0 -12.72 l-1.18 0 z M303.392 14.02 l0 3.8 l9.2 0 l0 2.18 l-11.38 0 l0 -14.92 l10.5 0 l0 2.2 l-8.32 0 l0 4.52 q0.62 -0.36 1.38 -0.48 q0.56 -0.1 1.44 -0.1 l3.26 0 l0 2.22 l-3.26 0 q-0.82 0 -1.44 0.1 q-0.76 0.14 -1.38 0.48 z M347.356 14.02 l0 3.8 l9.2 0 l0 2.18 l-11.38 0 l0 -14.92 l10.5 0 l0 2.2 l-8.32 0 l0 4.52 q0.62 -0.36 1.38 -0.48 q0.56 -0.1 1.44 -0.1 l3.26 0 l0 2.22 l-3.26 0 q-0.82 0 -1.44 0.1 q-0.76 0.14 -1.38 0.48 z M376.548 6.66 l-0.82 -1.84 l2.4 0 l7.18 15.18 l-2.44 0 l-0.98 -2.18 l-4.54 0 q-1.28 0 -2.3 0.24 q-0.9 0.22 -1.5 0.58 q-0.54 0.32 -0.72 0.66 l-0.38 0.7 l-2.36 0 z M378.14799999999997 15.620000000000001 l2.76 0 l-3.26 -6.3 l-3.3 7.14 q0.44 -0.38 1.34 -0.6 q1.02 -0.24 2.46 -0.24 z M411.54 15.46 q0 1.46 -0.88 2.6 q-0.86 1.08 -2.37 1.68 t-3.41 0.6 q-1.74 0 -3.38 -0.81 t-2.76 -2.25 l1.56 -1.46 q1.94 2.34 4.58 2.34 q1.16 0 2.12 -0.28 q1.06 -0.32 1.64 -0.9 q0.66 -0.64 0.66 -1.52 q0 -1.06 -0.66 -1.6 q-0.56 -0.46 -1.66 -0.6 q-0.64 -0.08 -2.1 -0.08 q-2.68 0 -4.09 -0.98 t-1.41 -2.88 q0 -1.2 0.71 -2.28 t1.95 -1.72 q1.28 -0.68 2.84 -0.68 q1.76 0 3.18 0.54 q1.52 0.58 2.82 1.82 l-1.36 1.6 q-1.22 -0.98 -2.22 -1.37 t-2.42 -0.39 q-0.82 0 -1.53 0.34 t-1.13 0.91 t-0.42 1.21 q0 1.72 3.18 1.72 q2.54 0 4.02 0.52 q1.4 0.5 2 1.52 q0.54 0.9 0.54 2.4 z M431.512 11.64 q1.34 -1.4 2.42 -3.12 t1.72 -3.44 l2.5 0 q-1.02 2.38 -2.48 4.56 q-1.32 1.98 -3.08 3.9 l0 6.46 l-2.16 0 l0 -6.46 q-1.76 -1.92 -3.08 -3.9 q-1.46 -2.18 -2.48 -4.56 l2.5 0 q0.64 1.72 1.72 3.44 t2.42 3.12 z"></path></g><g id="SvgjsG1126" featurekey="nameLeftFeature-0" transform="matrix(2.1454111160228306,0,0,2.1454111160228306,19.927294441988586,23.09177767954339)" fill="#ffffff"><path d="M3.94 5.5 l-3.44 0 l0 -2.28 l9.92 0 l0 2.28 l-3.44 0 l0 14.5 l-3.04 0 l0 -14.5 z M14.799999999999999 13.58 l0 6.42 l-3.02 0 l0 -16.78 l4.78 0 c0.26 0 0.52 0 0.8 0.02 c1.92 0 3.38 1.72 3.4 3.6 l0 0.84 c0 0.82 -0.02 1.66 -0.02 2.48 c-0.02 1.32 -0.72 2.46 -1.68 3.06 l2.2 6.78 l-3.08 0 l-2.02 -6.42 l-1.36 0 z M16.48 5.66 l-1.68 0 l0 5.68 l1.88 0 c0.6 0 0.86 -0.48 0.92 -1 c0.04 -0.6 0.08 -1.22 0.08 -1.82 c0 -0.62 -0.04 -1.22 -0.08 -1.82 c-0.08 -0.7 -0.44 -1.04 -1.12 -1.04 z M29.02 3.219999999999999 l4.04 16.78 l-3.06 0 l-0.78 -3.58 l-3.3 0 l-0.8 3.58 l-3.04 0 l4.02 -16.78 l2.92 0 z M27.560000000000002 8.94 l-1.14 5.22 l2.3 0 z M32.300000000000004 3.219999999999999 l3.06 0 l2.46 11.26 l2.44 -11.26 l3.04 0 l-4.04 16.78 l-2.94 0 z M50.94 12.36 l-3.2 0 l0 5.36 l4.84 0 l0 2.28 l-7.86 0 l0 -16.78 l7.86 0 l0 2.28 l-4.84 0 l0 4.62 l3.2 0 l0 2.24 z M54.14 3.219999999999999 l3.06 0 l0 14.5 l3.56 0 l0 2.28 l-6.62 0 l0 -16.78 z"></path></g><g id="SvgjsG1127" featurekey="nameRightFeature-0" transform="matrix(2.1454111160228306,0,0,2.1454111160228306,160.8176399732971,23.09177767954339)" fill="#ffffff"><path d="M9 16.84 l-1.16 -4.8 l0 7.96 l-3.56 0 l0 -16.76 l3.7 0 l2.46 8.32 l2.44 -8.34 l3.68 0 l0 16.78 l-3.56 0 l0 -7.96 l-1.12 4.8 l-2.88 0 z M10.44 12.98 l-2.76 -9.34 l-3 0 l0 15.96 l2.76 0 l0 -10.9 l1.88 7.74 l2.24 0 l1.84 -7.84 l0 11 l2.76 0 l0 -15.98 l-2.98 0 z M21.76 3.2399999999999984 l3.44 0 l4 16.76 l-3.58 0 l-0.72 -3.36 l-2.82 0 l-0.72 3.36 l-3.58 0 z M21.740000000000002 16.240000000000002 l3.5 0 l0.7 3.36 l2.76 0 l-3.82 -15.96 l-2.8 0 l-3.8 15.96 l2.76 0 z M23.48 7.92 l1.34 6.5 l-2.66 0 z M24.34 14.02 l-0.86 -4.1 l-0.84 4.1 l1.7 0 z M38.7 5.880000000000001 l-3.3 0 l0 14.12 l-3.56 0 l0 -14.12 l-3.3 0 l0 -2.64 l10.16 0 l0 2.64 z M35.00000000000001 19.6 l0 -14.12 l3.3 0 l0 -1.84 l-9.36 0 l0 1.84 l3.3 0 l0 14.12 l2.76 0 z M43.42000000000001 12.54 l0 4.82 l4.52 0 l0 2.64 l-8.08 0 l0 -16.76 l8.08 0 l0 2.64 l-4.52 -0.02 l0 4.08 l2.84 0 l0 2.6 l-2.84 0 z M45.86000000000001 12.14 l0 -1.8 l-2.84 0 l0 -4.88 l4.52 0.02 l0 -1.84 l-7.28 0 l0 15.96 l7.28 0 l0 -1.84 l-4.52 0 l0 -5.62 l2.84 0 z"></path></g></svg>